<svg width="512" height="480" viewBox="0 0 512 480" fill="none" xmlns="http://www.w3.org/2000/svg">
<g clip-path="url(#clip0_121_14)">
<path d="M383.448 28.962V169.519C383.448 177.492 380.191 184.738 374.948 189.981C369.705 195.225 362.459 198.481 354.485 198.481H266.219V234.457H444.593C452.567 234.457 459.813 237.713 465.056 242.956C470.299 248.199 473.556 255.445 473.556 263.419V333.614C473.556 339.141 469.075 343.621 463.548 343.621C458.021 343.621 453.541 339.141 453.541 333.614V263.419C453.539 262.245 453.305 261.083 452.853 260C452.401 258.917 451.739 257.934 450.906 257.107C450.079 256.274 449.096 255.612 448.012 255.16C446.929 254.708 445.767 254.474 444.593 254.472H266.219V333.686C266.219 339.213 261.739 343.693 256.212 343.693C250.685 343.693 246.204 339.213 246.204 333.686V254.472H67.83C66.6562 254.474 65.4944 254.708 64.4112 255.16C63.328 255.612 62.3448 256.274 61.518 257.107L61.499 257.087C59.8229 258.768 58.8821 261.045 58.883 263.419V333.686C58.883 339.213 54.402 343.693 48.875 343.693C43.348 343.693 38.868 339.213 38.868 333.686V263.419C38.868 255.471 42.124 248.241 47.368 242.995L47.388 242.977L47.368 242.956C52.611 237.713 59.856 234.457 67.83 234.457H246.204V198.481H157.938C149.964 198.481 142.719 195.225 137.476 189.981C132.232 184.738 128.976 177.492 128.976 169.519V28.962C128.976 20.988 132.232 13.743 137.476 8.499C142.719 3.256 149.964 0 157.938 0H354.485C362.459 0 369.705 3.256 374.948 8.499C380.191 13.743 383.448 20.988 383.448 28.962ZM97.443 367.966V467.403C97.443 473.926 92.104 479.263 85.584 479.263H11.86C5.339 479.263 0 473.923 0 467.403V367.966C0 361.445 5.337 356.106 11.86 356.106H85.584C92.106 356.106 97.443 361.443 97.443 367.966ZM305.033 367.966V467.403C305.033 473.926 299.694 479.263 293.173 479.263H219.449C212.929 479.263 207.59 473.923 207.59 467.403V367.966C207.59 361.445 212.927 356.106 219.449 356.106H293.173C299.696 356.106 305.033 361.443 305.033 367.966ZM512 367.966V467.403C512 473.926 506.661 479.263 500.14 479.263H426.416C419.896 479.263 414.557 473.923 414.557 467.403V367.966C414.557 361.445 419.894 356.106 426.416 356.106H500.14C506.663 356.106 512 361.443 512 367.966ZM255.202 178.466C255.874 178.397 256.55 178.397 257.222 178.466H354.485C355.659 178.464 356.821 178.23 357.904 177.778C358.987 177.326 359.971 176.664 360.798 175.831C361.631 175.004 362.292 174.021 362.745 172.938C363.197 171.854 363.431 170.693 363.433 169.519V28.962C363.433 26.511 362.423 24.275 360.798 22.65C359.971 21.817 358.987 21.1554 357.904 20.7033C356.821 20.2511 355.659 20.0172 354.485 20.015H157.938C155.487 20.015 153.251 21.025 151.626 22.65C150.001 24.275 148.991 26.511 148.991 28.962V169.519C148.993 170.693 149.227 171.854 149.679 172.938C150.132 174.021 150.793 175.004 151.626 175.831C153.251 177.456 155.487 178.466 157.938 178.466H255.202Z" fill="#FECD67"/>
</g>
<defs>
<clipPath id="clip0_121_14">
<rect width="512" height="479.263" fill="white"/>
</clipPath>
</defs>
</svg>
