<svg width="123" height="123" viewBox="0 0 123 123" fill="none" xmlns="http://www.w3.org/2000/svg">
<g clip-path="url(#clip0_121_16)">
<path fill-rule="evenodd" clip-rule="evenodd" d="M89.85 87.54L80.28 112L45 111.53L35.24 87.53C43.63 72.53 52.15 54.23 56.53 38.22L61.18 38.72L61 81.86C60.0027 82.2353 59.1718 82.9539 58.6565 83.8866C58.1412 84.8194 57.9753 85.9053 58.1885 86.9494C58.4018 87.9934 58.9802 88.9273 59.8199 89.5833C60.6597 90.2394 61.7058 90.5746 62.7704 90.5288C63.8351 90.483 64.8485 90.0592 65.6289 89.3335C66.4092 88.6078 66.9053 87.6277 67.0281 86.5692C67.1509 85.5106 66.8923 84.443 66.2989 83.5579C65.7054 82.6729 64.8159 82.0283 63.79 81.74L63.94 39L69.26 38.76C73.16 54.9 81.6 73.14 89.85 87.56V87.54ZM53.42 0H71.86C72.1839 -2.67604e-06 72.5046 0.063957 72.8037 0.188208C73.1028 0.31246 73.3745 0.494557 73.603 0.724049C73.8316 0.953542 74.0126 1.22591 74.1356 1.52553C74.2587 1.82514 74.3213 2.14611 74.32 2.47V8.47H103.4C103.898 7.05475 104.708 5.76968 105.77 4.71C106.699 3.78024 107.802 3.04265 109.016 2.5394C110.23 2.03616 111.531 1.77713 112.845 1.77713C114.159 1.77713 115.46 2.03616 116.674 2.5394C117.888 3.04265 118.991 3.78024 119.92 4.71C120.85 5.63873 121.587 6.74162 122.091 7.9556C122.594 9.16958 122.853 10.4708 122.853 11.785C122.853 13.0992 122.594 14.4004 122.091 15.6144C121.587 16.8284 120.85 17.9313 119.92 18.86C118.991 19.7928 117.887 20.5329 116.671 21.0379C115.455 21.5429 114.152 21.8029 112.835 21.8029C111.518 21.8029 110.215 21.5429 108.999 21.0379C107.783 20.5329 106.679 19.7928 105.75 18.86L105.57 18.66C104.593 17.6402 103.846 16.4228 103.38 15.09H88.38C93.2253 17.9079 97.6097 21.4524 101.38 25.6C108.893 33.8815 113.864 44.1501 115.7 55.18H119.7C120.496 55.18 121.259 55.4961 121.821 56.0587C122.384 56.6213 122.7 57.3844 122.7 58.18V71.69C122.7 72.4857 122.384 73.2487 121.821 73.8113C121.259 74.3739 120.496 74.69 119.7 74.69H106.43C105.634 74.69 104.871 74.3739 104.309 73.8113C103.746 73.2487 103.43 72.4857 103.43 71.69V58.18C103.43 57.3844 103.746 56.6213 104.309 56.0587C104.871 55.4961 105.634 55.18 106.43 55.18H109.52C107.739 45.7027 103.367 36.9041 96.89 29.76C90.8469 23.0661 83.0158 18.2398 74.32 15.85V21.13C74.32 21.7834 74.0612 22.4101 73.6001 22.873C73.139 23.336 72.5134 23.5974 71.86 23.6H53.42C52.7744 23.5844 52.1604 23.3176 51.7085 22.8563C51.2566 22.3951 51.0024 21.7757 51 21.13V15.86C42.078 18.324 34.0788 23.36 28 30.34C21.8008 37.3982 17.5994 45.9841 15.83 55.21H18.83C19.6257 55.21 20.3887 55.5261 20.9513 56.0887C21.5139 56.6513 21.83 57.4143 21.83 58.21V71.69C21.83 72.4857 21.5139 73.2487 20.9513 73.8113C20.3887 74.3739 19.6257 74.69 18.83 74.69H5.49001C4.69436 74.69 3.93129 74.3739 3.36869 73.8113C2.80608 73.2487 2.49001 72.4857 2.49001 71.69V58.18C2.49001 57.3844 2.80608 56.6213 3.36869 56.0587C3.93129 55.4961 4.69436 55.18 5.49001 55.18H9.59C11.4329 44.4561 16.2054 34.4507 23.38 26.27C27.2866 21.8407 31.8864 18.075 37 15.12H19.48C18.9807 16.5317 18.1708 17.8132 17.11 18.87C15.2386 20.7382 12.7034 21.7892 10.0591 21.7929C7.41483 21.7967 4.87669 20.7529 3.00001 18.89C2.07024 17.9613 1.33265 16.8584 0.829408 15.6444C0.326165 14.4304 0.0671387 13.1292 0.0671387 11.815C0.0671387 10.5008 0.326165 9.19958 0.829408 7.9856C1.33265 6.77162 2.07024 5.66873 3.00001 4.74C3.92874 3.81024 5.03162 3.07265 6.2456 2.5694C7.45958 2.06616 8.76085 1.80713 10.075 1.80713C11.3892 1.80713 12.6904 2.06616 13.9044 2.5694C15.1184 3.07265 16.2213 3.81024 17.15 4.74C18.2211 5.79825 19.0352 7.08795 19.53 8.51H51V2.51C50.9893 1.85659 51.2379 1.22557 51.6915 0.755117C52.1451 0.284668 52.7666 0.0131408 53.42 0ZM79.42 122.45H45.2V115.63H79.44V122.45H79.42Z" fill="#FECD67"/>
</g>
<defs>
<clipPath id="clip0_121_16">
<rect width="122.88" height="122.45" fill="white"/>
</clipPath>
</defs>
</svg>
