<svg width="109" height="123" viewBox="0 0 109 123" fill="none" xmlns="http://www.w3.org/2000/svg">
<g clip-path="url(#clip0_121_9)">
<path fill-rule="evenodd" clip-rule="evenodd" d="M62.72 69.7501H99.84C102.227 69.7501 104.516 70.6983 106.204 72.3861C107.892 74.074 108.84 76.3631 108.84 78.7501V113.9C108.84 116.287 107.892 118.576 106.204 120.264C104.516 121.952 102.227 122.9 99.84 122.9H62.72C60.3331 122.9 58.0439 121.952 56.3561 120.264C54.6682 118.576 53.72 116.287 53.72 113.9V78.7201C53.72 76.3331 54.6682 74.044 56.3561 72.3561C58.0439 70.6683 60.3331 69.7201 62.72 69.7201V69.7501ZM57.35 11.0601L76.24 28.6901H57.35V11.0601ZM20 66.8901C19.733 66.8977 19.4701 66.9587 19.227 67.0696C18.9839 67.1805 18.7655 67.3389 18.5847 67.5356C18.4038 67.7323 18.2643 67.9632 18.1741 68.2148C18.084 68.4663 18.0452 68.7333 18.06 69.0001C18.0396 69.2701 18.0743 69.5414 18.1618 69.7976C18.2494 70.0539 18.3881 70.2896 18.5695 70.4907C18.7509 70.6917 18.9712 70.8538 19.2171 70.9671C19.463 71.0805 19.7294 71.1427 20 71.1501H43.7V66.8901H20ZM20 82.1501C19.7329 82.1602 19.4705 82.2238 19.2283 82.337C18.9862 82.4503 18.7692 82.611 18.5902 82.8096C18.4112 83.0081 18.2738 83.2406 18.1862 83.4932C18.0986 83.7457 18.0625 84.0133 18.08 84.2801C18.0625 84.5468 18.0986 84.8144 18.1862 85.067C18.2738 85.3196 18.4112 85.552 18.5902 85.7506C18.7692 85.9492 18.9862 86.1098 19.2283 86.2231C19.4705 86.3364 19.7329 86.4 20 86.4101H43.7V82.1501H20ZM20 36.3601C19.7261 36.3595 19.4549 36.4152 19.2034 36.5237C18.9519 36.6323 18.7253 36.7913 18.5378 36.9911C18.3503 37.1908 18.2058 37.4269 18.1133 37.6847C18.0208 37.9426 17.9822 38.2167 18 38.4901C17.9822 38.7635 18.0208 39.0376 18.1133 39.2954C18.2058 39.5533 18.3503 39.7894 18.5378 39.9891C18.7253 40.1888 18.9519 40.3479 19.2034 40.4564C19.4549 40.565 19.7261 40.6207 20 40.6201H41.89C42.1563 40.6087 42.4177 40.5441 42.6586 40.4303C42.8996 40.3164 43.1155 40.1556 43.2934 39.9571C43.4713 39.7587 43.6078 39.5267 43.6948 39.2748C43.7818 39.0228 43.8176 38.756 43.8 38.4901C43.8176 38.2241 43.7818 37.9573 43.6948 37.7054C43.6078 37.4535 43.4713 37.2215 43.2934 37.023C43.1155 36.8246 42.8996 36.6637 42.6586 36.5499C42.4177 36.436 42.1563 36.3715 41.89 36.3601H20ZM20 21.1001C19.7329 21.1102 19.4705 21.1738 19.2283 21.287C18.9862 21.4003 18.7692 21.561 18.5902 21.7596C18.4112 21.9581 18.2738 22.1906 18.1862 22.4432C18.0986 22.6957 18.0625 22.9633 18.08 23.2301C18.0625 23.4968 18.0986 23.7644 18.1862 24.017C18.2738 24.2696 18.4112 24.502 18.5902 24.7006C18.7692 24.8992 18.9862 25.0598 19.2283 25.1731C19.4705 25.2864 19.7329 25.35 20 25.3601H32C32.2663 25.3487 32.5277 25.2841 32.7687 25.1703C33.0096 25.0564 33.2255 24.8956 33.4034 24.6971C33.5813 24.4987 33.7178 24.2667 33.8048 24.0148C33.8918 23.7628 33.9276 23.496 33.91 23.2301C33.9276 22.9641 33.8918 22.6973 33.8048 22.4454C33.7178 22.1935 33.5813 21.9615 33.4034 21.763C33.2255 21.5646 33.0096 21.4037 32.7687 21.2899C32.5277 21.176 32.2663 21.1115 32 21.1001H20ZM20 51.6301C19.7261 51.6295 19.4549 51.6852 19.2034 51.7937C18.9519 51.9023 18.7253 52.0613 18.5378 52.2611C18.3503 52.4608 18.2058 52.6969 18.1133 52.9547C18.0208 53.2126 17.9822 53.4867 18 53.7601C17.9822 54.0334 18.0208 54.3076 18.1133 54.5654C18.2058 54.8233 18.3503 55.0594 18.5378 55.2591C18.7253 55.4588 18.9519 55.6179 19.2034 55.7264C19.4549 55.835 19.7261 55.8907 20 55.8901H57C57.2719 55.8837 57.5397 55.8232 57.788 55.7123C58.0362 55.6013 58.2599 55.4421 58.4461 55.2439C58.6322 55.0457 58.777 54.8124 58.8721 54.5576C58.9672 54.3029 59.0107 54.0318 59 53.7601C59.0178 53.4867 58.9793 53.2126 58.8868 52.9547C58.7943 52.6969 58.6498 52.4608 58.4623 52.2611C58.2747 52.0613 58.0482 51.9023 57.7967 51.7937C57.5451 51.6852 57.274 51.6295 57 51.6301H20ZM86.8 31.2201C86.7935 30.5398 86.5669 29.8799 86.1541 29.3392C85.7413 28.7984 85.1645 28.4058 84.51 28.2201L56.68 1.22008C56.3907 0.839527 56.0171 0.531281 55.5885 0.319587C55.1599 0.107892 54.6881 -0.00147753 54.21 8.01274e-05H5.66004C4.91649 -0.00388673 4.17952 0.139474 3.49168 0.421884C2.80384 0.704294 2.17875 1.12016 1.65251 1.64547C1.12627 2.17078 0.709299 2.79513 0.425673 3.48247C0.142047 4.16981 -0.00261619 4.90653 3.58125e-05 5.65008V102.43C-0.00233174 103.173 0.142238 103.908 0.425418 104.595C0.708598 105.281 1.12479 105.905 1.65004 106.43C2.71528 107.484 4.15187 108.076 5.65004 108.08H10.46V116C10.4808 117.829 11.2166 119.577 12.5098 120.87C13.8031 122.164 15.5512 122.899 17.38 122.92H43.74V117H17.35C17.0891 117.002 16.8379 116.901 16.65 116.72C16.469 116.532 16.3685 116.281 16.37 116.02V108.13H43.76V101.82H6.32004V6.29008H51V31.8301C51 32.2498 51.0833 32.6653 51.2451 33.0525C51.4069 33.4397 51.644 33.791 51.9426 34.0859C52.2412 34.3808 52.5954 34.6134 52.9846 34.7704C53.3739 34.9273 53.7904 35.0054 54.21 35.0001H80.44V60.2001H86.75V42.4401H94.56C94.8244 42.4359 95.0797 42.5366 95.27 42.7201C95.4511 42.9079 95.5516 43.1592 95.55 43.4201V60.2101H101.55V43.4201C101.555 41.593 100.836 39.8384 99.55 38.5401C98.9101 37.8994 98.149 37.3927 97.3112 37.0493C96.4733 36.7059 95.5755 36.5328 94.67 36.5401H86.75V31.2201H86.8ZM79.47 79.8601C81.3725 79.8606 83.2561 80.2362 85.0132 80.9655C86.7703 81.6947 88.3664 82.7633 89.71 84.1101C91.0663 85.4488 92.1437 87.043 92.88 88.8007C93.6164 90.5583 93.9971 92.4444 94 94.3501C94.0006 95.7518 93.7985 97.1462 93.4 98.4901C93.0504 99.5692 92.5808 100.606 92 101.58L97.28 107.34C97.4677 107.545 97.5667 107.815 97.5555 108.092C97.5442 108.37 97.4236 108.631 97.22 108.82L93.22 112.49C93.1215 112.589 93.0034 112.666 92.8733 112.717C92.7432 112.767 92.6039 112.79 92.4645 112.783C92.3251 112.776 92.1886 112.741 92.0639 112.678C91.9391 112.616 91.8288 112.528 91.74 112.42L86.74 106.9C85.7914 107.451 84.7855 107.897 83.74 108.23C82.3898 108.632 80.9888 108.837 79.58 108.84C76.7078 108.857 73.8954 108.02 71.4994 106.436C69.1034 104.852 67.2318 102.592 66.122 99.943C65.0122 97.2938 64.7141 94.3747 65.2657 91.5559C65.8173 88.7371 67.1936 86.1456 69.22 84.1101C70.5636 82.7603 72.161 81.6899 73.9202 80.9605C75.6794 80.231 77.5656 79.8571 79.47 79.8601ZM85.87 88.0001C85.0311 87.1466 84.032 86.4669 82.93 86.0001H82.88C81.2306 85.3246 79.4177 85.154 77.6713 85.5101C75.9248 85.8662 74.3234 86.7328 73.07 88.0001C72.2275 88.8389 71.5595 89.8364 71.1047 90.9349C70.6498 92.0334 70.4171 93.2112 70.42 94.4001C70.408 95.5894 70.6355 96.7691 71.0891 97.8686C71.5426 98.9682 72.2129 99.9651 73.06 100.8C73.9206 101.655 74.9396 102.335 76.06 102.8C78.2776 103.707 80.7625 103.707 82.98 102.8C85.1966 101.875 86.9571 100.111 87.8771 97.8928C88.7971 95.6743 88.8017 93.182 87.89 90.9601C87.4219 89.848 86.735 88.8414 85.87 88.0001Z" fill="#FECD67"/>
</g>
<defs>
<clipPath id="clip0_121_9">
<rect width="108.81" height="122.88" fill="white"/>
</clipPath>
</defs>
</svg>
