<svg width="123" height="101" viewBox="0 0 123 101" fill="none" xmlns="http://www.w3.org/2000/svg">
<g clip-path="url(#clip0_121_18)">
<path d="M11.72 0H101.35C104.458 0.00264808 107.437 1.23828 109.634 3.43563C111.832 5.63299 113.067 8.61248 113.07 11.72V40C111.573 39.7468 110.047 39.7131 108.54 39.9C108.17 39.9 107.8 39.99 107.43 40.06V26.31H5.65V73.16H71.55C70.4493 74.8722 69.7108 76.7916 69.38 78.8H60.13V94.47H67.24L67.13 95.29C66.9141 96.8966 66.958 98.5274 67.26 100.12H11.72C8.61329 100.115 5.63533 98.8782 3.43855 96.6814C1.24177 94.4847 0.00528803 91.5067 0 88.4L0 11.72C0.00528803 8.61329 1.24177 5.63533 3.43855 3.43855C5.63533 1.24177 8.61329 0.00528803 11.72 0ZM97.2 94.26L82.2 97.26L84.37 81.26L97.2 94.26ZM89.1 76.5L109.32 55.5C109.533 55.2618 109.821 55.1047 110.137 55.0555C110.452 55.0063 110.775 55.0679 111.05 55.23L122.52 66.33C122.642 66.4513 122.737 66.5972 122.799 66.7579C122.861 66.9186 122.888 67.0905 122.878 67.2624C122.869 67.4343 122.823 67.6023 122.744 67.7553C122.665 67.9083 122.555 68.0428 122.42 68.15L101.93 89.43L89.1 76.5ZM50.5 33.65L70.33 47.47C70.6477 47.6796 70.9226 47.9477 71.14 48.26C71.3512 48.5643 71.5001 48.9074 71.5782 49.2694C71.6564 49.6315 71.6621 50.0054 71.5952 50.3697C71.5283 50.734 71.39 51.0815 71.1883 51.3922C70.9867 51.7029 70.7255 51.9706 70.42 52.18L50.68 65.83C50.2654 66.1686 49.7632 66.3827 49.2318 66.4473C48.7004 66.512 48.1615 66.4246 47.6778 66.1953C47.1941 65.966 46.7853 65.6042 46.4989 65.1519C46.2126 64.6996 46.0604 64.1753 46.06 63.64V36C46.06 36 46.49 34.51 46.57 34.38C47.0011 33.7692 47.6564 33.3538 48.3927 33.2245C49.129 33.0953 49.8866 33.2626 50.5 33.69V33.65ZM54.5 94.47V78.8H31.71V94.47H54.5ZM26.06 78.8H5.65V88.4C5.65527 90.0082 6.29648 91.5491 7.43369 92.6863C8.57089 93.8235 10.1118 94.4647 11.72 94.47H26.06V78.8ZM82.28 20.66V5.66H60.13V20.66H82.28ZM87.93 5.66V20.66H107.42V11.72C107.415 10.11 106.772 8.56766 105.633 7.43017C104.493 6.29268 102.95 5.65264 101.34 5.65L87.93 5.66ZM54.48 20.66V5.66H31.71V20.66H54.48ZM26.06 20.66V5.66H11.72C10.1118 5.66527 8.57089 6.30648 7.43369 7.44369C6.29648 8.58089 5.65527 10.1218 5.65 11.73V20.67L26.06 20.66Z" fill="#FECD67"/>
</g>
<defs>
<clipPath id="clip0_121_18">
<rect width="122.88" height="100.12" fill="white"/>
</clipPath>
</defs>
</svg>
