<svg width="123" height="88" viewBox="0 0 123 88" fill="none" xmlns="http://www.w3.org/2000/svg">
<g clip-path="url(#clip0_121_6)">
<path fill-rule="evenodd" clip-rule="evenodd" d="M52.8 74.65C56.1 84.37 69.9 84.72 73 74.65C76.65 77.94 87.46 78.59 91.48 80.84C92.75 81.55 93.9 82.45 94.82 83.67C95.44 84.49 96.27 86 96.89 87.69H28.9C29.53 86 30.35 84.49 30.97 83.67C31.89 82.45 33.04 81.55 34.31 80.84C38.34 78.6 49.15 77.94 52.8 74.65ZM50.51 0H75.3C76.37 0 77.24 0.87 77.24 1.94V19.35C77.24 20.42 76.37 21.29 75.3 21.29H50.51C49.44 21.29 48.57 20.42 48.57 19.35V1.94C48.57 0.87 49.44 0 50.51 0ZM76.09 5.43H49.8V19.54C49.8 19.69 49.86 19.82 49.96 19.92C50.06 20.02 50.19 20.08 50.34 20.08H75.55C75.7 20.08 75.83 20.02 75.93 19.92C76.03 19.82 76.09 19.69 76.09 19.54V5.43ZM73.45 2.18C73.98 2.18 74.41 2.61 74.41 3.14C74.41 3.67 73.98 4.1 73.45 4.1C72.92 4.1 72.49 3.67 72.49 3.14C72.49 2.61 72.92 2.18 73.45 2.18ZM66.95 2.18C67.48 2.18 67.91 2.61 67.91 3.14C67.91 3.67 67.48 4.1 66.95 4.1C66.42 4.1 65.99 3.67 65.99 3.14C65.99 2.61 66.42 2.18 66.95 2.18ZM70.2 2.18C70.73 2.18 71.16 2.61 71.16 3.14C71.16 3.67 70.73 4.1 70.2 4.1C69.67 4.1 69.24 3.67 69.24 3.14C69.24 2.61 69.67 2.18 70.2 2.18ZM59.36 11.38L56.2 12.57L59.36 13.77V16.55L54.45 13.77V11.38L59.36 8.6V11.38ZM71.36 11.38V13.77L66.45 16.55V13.77L69.61 12.57L66.45 11.38V8.59L71.36 11.38ZM62.85 17.33H60.76L63.34 7.27H65.43L62.85 17.33ZM119.89 55.64C119.93 55.64 119.97 55.64 120.01 55.65C120.26 55.21 120.49 54.74 120.71 54.25C120.72 54.24 120.72 54.23 120.73 54.23C121.04 53.48 121.29 52.71 121.44 51.91C121.56 51.29 121.65 50.65 121.67 50H117.91C117.84 51.91 117.27 53.79 116.21 55.64H119.89ZM119.24 56.84H115.46C114.31 58.51 112.76 60.15 110.83 61.77C111.13 61.73 111.44 61.68 111.73 61.62C112.54 61.46 113.32 61.22 114.08 60.89C114.84 60.56 115.56 60.18 116.22 59.73C116.88 59.29 117.49 58.79 118.06 58.22C118.48 57.79 118.89 57.33 119.24 56.84ZM107.6 61.77C105.66 60.15 104.11 58.51 102.97 56.84H99.19C99.55 57.33 99.95 57.79 100.39 58.23C100.96 58.8 101.56 59.3 102.23 59.74C102.89 60.18 103.6 60.57 104.37 60.9C104.38 60.91 104.39 60.91 104.39 60.92C105.14 61.23 105.91 61.48 106.71 61.63C107 61.68 107.3 61.72 107.6 61.77ZM98.4 55.64H102.21C101.15 53.79 100.58 51.9 100.51 50H96.75C96.78 50.66 96.86 51.29 96.98 51.91C97.14 52.72 97.38 53.5 97.71 54.26C97.91 54.74 98.14 55.2 98.4 55.64ZM96.75 48.8H100.53C100.67 46.93 101.29 45.05 102.4 43.16H98.4C98.15 43.6 97.92 44.06 97.71 44.55C97.7 44.56 97.7 44.57 97.69 44.57C97.38 45.32 97.13 46.09 96.98 46.89C96.85 47.51 96.77 48.14 96.75 48.8ZM99.18 41.96H103.17C104.31 40.32 105.81 38.67 107.68 37.01C107.34 37.05 107.02 37.1 106.7 37.17C105.89 37.33 105.11 37.57 104.35 37.9C103.59 38.23 102.87 38.61 102.21 39.06C101.55 39.5 100.94 40 100.37 40.57C99.94 41 99.54 41.46 99.18 41.96ZM110.73 37.01C112.61 38.67 114.11 40.32 115.24 41.96H119.23C118.87 41.47 118.47 41.01 118.03 40.57C117.46 40 116.86 39.5 116.19 39.06C115.53 38.62 114.82 38.23 114.05 37.9C114.04 37.89 114.03 37.89 114.03 37.88C113.28 37.57 112.51 37.32 111.71 37.17C111.39 37.11 111.06 37.06 110.73 37.01ZM120.02 43.16H116.02C117.13 45.05 117.75 46.93 117.89 48.8H121.67C121.64 48.14 121.56 47.51 121.44 46.89C121.28 46.08 121.04 45.3 120.71 44.54C120.5 44.06 120.27 43.6 120.02 43.16ZM106.46 35.99C107.35 35.81 108.26 35.72 109.21 35.72C110.15 35.72 111.06 35.81 111.96 35.99C112.84 36.16 113.68 36.42 114.51 36.78C114.52 36.78 114.53 36.79 114.54 36.8C115.36 37.15 116.14 37.58 116.87 38.06C117.6 38.54 118.27 39.1 118.89 39.72C119.51 40.34 120.06 41.01 120.55 41.74C121.04 42.47 121.46 43.25 121.81 44.07C122.17 44.91 122.43 45.77 122.61 46.65C122.79 47.54 122.88 48.45 122.88 49.4C122.88 50.34 122.79 51.25 122.61 52.15C122.44 53.03 122.18 53.87 121.82 54.7C121.82 54.71 121.81 54.72 121.8 54.73C121.45 55.56 121.02 56.33 120.54 57.06C120.06 57.79 119.5 58.46 118.88 59.08C118.26 59.7 117.59 60.25 116.86 60.74C116.13 61.23 115.35 61.65 114.53 62C113.69 62.36 112.83 62.62 111.95 62.8C111.06 62.98 110.15 63.07 109.2 63.07C108.26 63.07 107.35 62.98 106.45 62.8C105.57 62.63 104.73 62.37 103.9 62.01C103.89 62.01 103.88 62 103.87 61.99C103.05 61.64 102.27 61.21 101.54 60.73C100.81 60.25 100.14 59.69 99.52 59.07C98.9 58.45 98.35 57.78 97.86 57.05C97.37 56.32 96.95 55.54 96.6 54.72C96.24 53.88 95.98 53.02 95.8 52.14C95.62 51.25 95.53 50.34 95.53 49.39C95.53 48.45 95.62 47.54 95.8 46.64C95.97 45.76 96.23 44.92 96.59 44.09C96.59 44.08 96.6 44.07 96.61 44.06C96.96 43.23 97.39 42.46 97.87 41.73C98.35 41 98.91 40.33 99.53 39.71C100.15 39.09 100.82 38.54 101.55 38.05C102.28 37.56 103.06 37.14 103.88 36.79C104.71 36.44 105.57 36.18 106.46 35.99ZM109.81 37.79V41.96H113.78C112.73 40.58 111.41 39.19 109.81 37.79ZM109.81 43.16V48.8H116.69C116.53 46.95 115.84 45.07 114.61 43.16H109.81ZM109.81 50V55.64H114.82C116.01 53.77 116.64 51.89 116.71 50H109.81ZM109.81 56.84V61.06C111.51 59.67 112.9 58.26 113.98 56.84H109.81ZM108.61 61.05V56.83H104.44C105.51 58.25 106.9 59.66 108.61 61.05ZM108.61 55.64V50H101.7C101.77 51.89 102.41 53.77 103.59 55.64H108.61ZM108.61 48.8V43.16H103.8C102.57 45.07 101.88 46.95 101.73 48.8H108.61ZM108.61 41.96V37.79C107 39.19 105.68 40.58 104.64 41.96H108.61ZM9.43 49.4L5 42.97C5.78 42.03 6.46 41.03 7.05 39.98C7.66 38.89 8.17 37.75 8.61 36.56L16.41 37.31L9.43 49.4ZM10.89 50.28L17.9 38.13L29.99 45.11L29.03 46.77L19.41 41.22C18.89 40.92 18.21 41.1 17.91 41.62C17.61 42.14 17.79 42.82 18.31 43.12L27.93 48.67L27.03 50.22L17.41 44.67C16.89 44.37 16.21 44.55 15.91 45.07C15.61 45.59 15.79 46.27 16.31 46.57L25.93 52.12L25.03 53.67L15.41 48.12C14.89 47.82 14.21 48 13.91 48.52C13.61 49.04 13.79 49.72 14.31 50.02L23.93 55.57L22.97 57.23L10.89 50.28ZM3.48 40.78L0 35.73L5.97 36.31C5.63 37.15 5.25 37.96 4.82 38.73C4.43 39.45 3.98 40.13 3.48 40.78ZM17.37 84.16C17.88 85.3 17.37 86.64 16.22 87.15C15.08 87.66 13.74 87.15 13.23 86C11.96 83.16 10.92 80.21 10.16 77.16C9.41 74.17 8.91 71.07 8.68 67.9C8.59 66.65 9.53 65.56 10.79 65.47C12.04 65.38 13.13 66.32 13.22 67.58C13.43 70.48 13.89 73.31 14.57 76.05C15.27 78.88 16.22 81.58 17.37 84.16ZM26.91 30C25.98 30.83 24.55 30.75 23.71 29.82C22.88 28.89 22.96 27.46 23.89 26.62C26.01 24.73 28.49 22.79 31.05 21.12C33.35 19.62 35.72 18.33 37.98 17.45C39.15 17 40.46 17.58 40.91 18.75C41.36 19.92 40.78 21.23 39.61 21.68C37.66 22.43 35.57 23.58 33.51 24.92C31.15 26.47 28.85 28.26 26.91 30ZM85.7 20.39C84.62 19.76 84.26 18.37 84.89 17.29C85.52 16.21 86.91 15.85 87.99 16.48C90.53 17.96 92.94 19.66 95.19 21.53C97.46 23.41 99.57 25.48 101.49 27.69C102.31 28.64 102.21 30.07 101.26 30.89C100.31 31.71 98.88 31.61 98.06 30.66C96.29 28.62 94.36 26.73 92.3 25.01C90.24 23.31 88.03 21.76 85.7 20.39ZM110.86 70.57C111.02 69.33 112.16 68.45 113.4 68.62C114.64 68.79 115.52 69.92 115.35 71.16C115.01 73.72 114.5 76.21 113.82 78.61C113.13 81.08 112.26 83.46 111.25 85.76C110.74 86.91 109.4 87.43 108.26 86.92C107.11 86.41 106.59 85.07 107.1 83.93C108.04 81.81 108.83 79.63 109.46 77.39C110.08 75.16 110.56 72.88 110.86 70.57ZM50.27 54.51C49.58 54.54 49.05 54.68 48.7 54.92C48.5 55.06 48.35 55.23 48.25 55.44C48.14 55.67 48.09 55.95 48.1 56.28C48.13 57.23 48.63 58.47 49.59 59.9L49.6 59.92L52.72 64.89C53.97 66.88 55.29 68.91 56.92 70.4C58.49 71.83 60.39 72.81 62.91 72.81C65.64 72.82 67.63 71.81 69.25 70.29C70.93 68.71 72.26 66.55 73.57 64.4L77.09 58.6C77.75 57.1 77.98 56.1 77.83 55.51C77.74 55.16 77.35 54.99 76.7 54.96C76.56 54.95 76.42 54.95 76.27 54.96C76.11 54.96 75.95 54.98 75.78 54.99C75.69 55 75.6 54.99 75.51 54.97C75.2 54.99 74.87 54.97 74.55 54.92L75.76 50.08C66.82 51.49 60.13 44.85 50.68 48.75L51.36 54.54C50.96 54.58 50.6 54.56 50.27 54.51ZM77.9 53.39C78.77 53.65 79.32 54.2 79.55 55.09C79.8 56.07 79.53 57.46 78.69 59.36C78.67 59.39 78.66 59.43 78.64 59.46L75.08 65.32C73.71 67.58 72.31 69.84 70.46 71.59C68.53 73.39 66.16 74.59 62.92 74.58C59.89 74.57 57.61 73.41 55.74 71.7C53.93 70.05 52.55 67.91 51.24 65.83L48.12 60.86C46.98 59.16 46.38 57.6 46.35 56.32C46.33 55.72 46.43 55.17 46.66 54.69C46.89 54.19 47.25 53.77 47.73 53.44C47.96 53.29 48.21 53.16 48.49 53.05C48.29 50.36 48.21 47.46 48.34 44.62C48.41 43.95 48.54 43.27 48.73 42.6C49.53 39.75 51.53 38.44 54.01 36.87C55.38 36 56.87 35.34 58.44 34.9C59.43 34.62 57.6 31.45 58.62 31.34C63.58 30.83 71.6 35.36 75.07 39.1C76.8 40.98 77.89 42.47 78.13 45.76L77.9 53.39Z" fill="#FECD67"/>
</g>
<defs>
<clipPath id="clip0_121_6">
<rect width="122.88" height="87.69" fill="white"/>
</clipPath>
</defs>
</svg>
